<?xml version="1.0" encoding="UTF-8" standalone="no"?>
<svg width="13px" height="13px" viewBox="0 0 13 13" version="1.1" xmlns="http://www.w3.org/2000/svg" xmlns:xlink="http://www.w3.org/1999/xlink">
    <!-- Generator: Sketch 41.2 (35397) - http://www.bohemiancoding.com/sketch -->
    <title>Shape</title>
    <desc>Created with Sketch.</desc>
    <defs></defs>
    <g id="Page-1" stroke="none" stroke-width="1" fill="none" fill-rule="evenodd">
        <g id="style-2-copy" transform="translate(-1317.000000, -17.000000)" fill="#FFFFFF" stroke="#FFFFFF">
            <g id="Group">
                <g id="Group-5" transform="translate(1309.000000, 9.000000)">
                    <path d="M19.6794912,10.7087942 C20.0682125,10.3200535 20.0616413,9.68322487 19.6760597,9.29764328 L20.2523568,9.87394037 C19.8617403,9.48332389 19.2321046,9.4796607 18.8412409,9.87054384 L14.775,13.9369869 L10.7087592,9.87054384 C10.3200379,9.48180321 9.68322487,9.48835879 9.29764328,9.87394037 L9.87394038,9.29764328 C9.48332389,9.68825976 9.47964514,10.317911 9.87050885,10.7087942 L13.9367497,14.7752372 L9.87050885,18.8416801 C9.48178754,19.2304207 9.48835879,19.8672494 9.87394038,20.252831 L9.29764328,19.6765339 C9.68825976,20.0671504 10.3178955,20.0708136 10.7087592,19.6799305 L14.775,15.6134874 L18.8412409,19.6799305 C19.2299622,20.0686711 19.8667752,20.0621155 20.2523568,19.6765339 L19.6760597,20.252831 C20.0666762,19.8622145 20.0703549,19.2325632 19.6794912,18.8416801 L15.6132503,14.7752372 L19.6794912,10.7087942 Z" id="Shape"></path>
                </g>
            </g>
        </g>
    </g>
</svg>