<?xml version="1.0" encoding="UTF-8" standalone="no"?>
<svg width="67px" height="67px" viewBox="0 0 67 67" version="1.1" xmlns="http://www.w3.org/2000/svg" xmlns:xlink="http://www.w3.org/1999/xlink">
    <!-- Generator: Sketch 3.8.3 (29802) - http://www.bohemiancoding.com/sketch -->
    <title>Artboard 1</title>
    <desc>Created with Sketch.</desc>
    <defs></defs>
    <g id="Page-1" stroke="none" stroke-width="1" fill="none" fill-rule="evenodd">
        <g id="Artboard-1" fill="#404040">
            <g id="gear-3" transform="translate(1.000000, 1.000000)">
                <g id="Layer_1">
                    <path d="M58.457,33.89 C58.604,30.738 58.177,27.642 57.248,24.729 L62.091,20.027 L58.096,13.106 L51.605,14.95 C49.546,12.689 47.081,10.771 44.278,9.322 L44.378,2.577 L36.659,0.508 L33.376,6.4 C30.224,6.253 27.129,6.681 24.216,7.609 L19.516,2.766 L12.597,6.762 L14.44,13.255 C12.18,15.315 10.262,17.781 8.813,20.585 L2.069,20.484 L0,28.203 L5.891,31.489 C5.744,34.642 6.172,37.737 7.1,40.651 L2.258,45.352 L6.253,52.273 L12.744,50.429 C14.803,52.69 17.269,54.609 20.072,56.058 L19.972,62.803 L27.689,64.871 L30.974,58.979 C34.125,59.126 37.221,58.697 40.134,57.769 L44.834,62.612 L51.753,58.617 L49.91,52.125 C52.17,50.064 54.088,47.599 55.537,44.795 L62.281,44.895 L64.348,37.176 L58.457,33.89 L58.457,33.89 Z M27.908,48.615 C19.114,46.259 13.896,37.218 16.252,28.421 C18.608,19.626 27.647,14.406 36.441,16.762 C45.234,19.119 50.453,28.16 48.096,36.956 C45.74,45.752 36.701,50.973 27.908,48.615 L27.908,48.615 Z" id="Shape"></path>
                    <path d="M35.602,33.608 C35.095,35.502 33.149,36.625 31.256,36.118 C29.363,35.609 28.239,33.664 28.747,31.771 C29.254,29.877 31.2,28.753 33.093,29.261 C34.986,29.768 36.109,31.714 35.602,33.608" id="Shape"></path>
                </g>
            </g>
        </g>
    </g>
</svg>