<?xml version="1.0" encoding="UTF-8" standalone="no"?>
<svg width="56px" height="56px" viewBox="0 0 56 56" version="1.1" xmlns="http://www.w3.org/2000/svg" xmlns:xlink="http://www.w3.org/1999/xlink">
    <!-- Generator: Sketch 3.8.3 (29802) - http://www.bohemiancoding.com/sketch -->
    <title>Artboard 2</title>
    <desc>Created with Sketch.</desc>
    <defs></defs>
    <g id="Page-1" stroke="none" stroke-width="1" fill="none" fill-rule="evenodd">
        <g id="Artboard-2">
            <g id="noun_27266" transform="translate(42.000000, 33.000000)"></g>
            <g id="gear-1" transform="translate(28.000000, 28.500000) rotate(4.000000) translate(-28.000000, -28.500000) translate(0.000000, 2.000000)" fill="#404040">
                <g id="Layer_1" transform="translate(-0.000000, -0.000000)">
                    <path d="M46.655,19.426 C45.605,16.643 43.959,14.166 41.879,12.138 L43.646,4.285 L36.381,0.616 L31.099,6.693 C29.681,6.461 28.217,6.374 26.722,6.457 C25.227,6.54 23.783,6.789 22.397,7.176 L16.474,1.721 L9.662,6.172 L12.29,13.781 C10.448,16.026 9.086,18.671 8.352,21.553 L0.667,23.949 L1.12,32.069 L9.021,33.599 C10.072,36.382 11.718,38.859 13.798,40.887 L12.031,48.741 L19.296,52.409 L24.577,46.333 C25.996,46.563 27.46,46.651 28.955,46.569 C30.45,46.485 31.894,46.237 33.28,45.849 L39.203,51.304 L46.015,46.853 L43.387,39.243 C45.229,36.999 46.591,34.354 47.325,31.472 L55.009,29.077 L54.557,20.956 L46.655,19.426 L46.655,19.426 Z M37.352,25.983 C37.644,31.232 33.623,35.724 28.369,36.016 C23.114,36.308 18.618,32.288 18.326,27.04 C18.034,21.79 22.055,17.299 27.309,17.007 C32.563,16.715 37.06,20.735 37.352,25.983 L37.352,25.983 Z" id="Shape"></path>
                </g>
            </g>
        </g>
    </g>
</svg>