<?xml version="1.0" encoding="UTF-8" standalone="no"?>
<svg width="96px" height="96px" viewBox="0 0 96 96" version="1.1" xmlns="http://www.w3.org/2000/svg" xmlns:xlink="http://www.w3.org/1999/xlink">
    <!-- Generator: Sketch 3.8.3 (29802) - http://www.bohemiancoding.com/sketch -->
    <title>Artboard 3</title>
    <desc>Created with Sketch.</desc>
    <defs></defs>
    <g id="Page-1" stroke="none" stroke-width="1" fill="none" fill-rule="evenodd">
        <g id="Artboard-3" fill="#3F3F3F">
            <g id="gear-2" transform="translate(48.000000, 48.000000) rotate(15.000000) translate(-48.000000, -48.000000) translate(1.000000, 1.000000)">
                <g id="Layer_1" transform="translate(0.000000, -0.000000)">
                    <path d="M91.131,63.079 L93.232,55.236 L86.556,51.507 C86.91,48.447 86.896,45.409 86.559,42.438 L93.241,38.701 L91.148,30.861 L83.493,30.979 C82.286,28.203 80.771,25.572 78.976,23.136 L82.907,16.547 L77.181,10.809 L70.614,14.744 C68.217,12.965 65.599,11.434 62.78,10.211 L62.897,2.551 L55.075,0.454 L51.346,7.147 C48.293,6.796 45.262,6.814 42.296,7.154 L38.575,0.462 L30.749,2.568 L30.858,10.24 C28.087,11.451 25.459,12.973 23.027,14.774 L16.456,10.843 L10.725,16.586 L14.643,23.164 C12.866,25.568 11.335,28.193 10.112,31.019 L2.468,30.909 L0.367,38.752 L7.041,42.479 C6.688,45.54 6.702,48.578 7.039,51.549 L0.357,55.285 L2.45,63.126 L10.106,63.007 C11.312,65.784 12.827,68.415 14.622,70.851 L10.692,77.441 L16.417,83.177 L22.984,79.244 C25.382,81.022 27.999,82.554 30.819,83.776 L30.701,91.436 L38.524,93.533 L42.252,86.84 C45.305,87.191 48.336,87.173 51.302,86.833 L55.023,93.524 L62.849,91.418 L62.741,83.747 C65.512,82.535 68.139,81.015 70.571,79.213 L77.142,83.144 L82.873,77.4 L78.955,70.824 C80.731,68.419 82.263,65.795 83.486,62.969 L91.131,63.079 L91.131,63.079 Z M39.796,73.137 C25.393,69.276 16.853,54.444 20.72,40.005 C24.588,25.568 39.399,16.993 53.802,20.853 C68.205,24.713 76.744,39.546 72.878,53.984 C69.01,68.421 54.199,76.996 39.796,73.137 L39.796,73.137 Z" id="Shape"></path>
                    <path d="M27.548,41.835 C24.693,52.492 30.998,63.441 41.629,66.291 C52.261,69.141 63.194,62.812 66.048,52.154 C68.902,41.496 62.599,30.547 51.968,27.698 C41.336,24.848 30.403,31.178 27.548,41.835" id="Shape"></path>
                </g>
            </g>
        </g>
    </g>
</svg>