<?xml version="1.0" encoding="UTF-8" standalone="no"?>
<svg width="1200px" height="78px" viewBox="0 0 1200 78" version="1.1" xmlns="http://www.w3.org/2000/svg" xmlns:xlink="http://www.w3.org/1999/xlink" style="background: #23292B;">
    <!-- Generator: Sketch 3.8.3 (29802) - http://www.bohemiancoding.com/sketch -->
    <title>Artboard 1</title>
    <desc>Created with Sketch.</desc>
    <defs></defs>
    <g id="Page-1" stroke="none" stroke-width="1" fill="none" fill-rule="evenodd">
        <g id="Artboard-1">
            <g id="logo" transform="translate(24.000000, 8.000000)">
                <g id="Page-1">
                    <g id="headers-copy">
                        <g id="header">
                            <g id="logo">
                                <g id="Group-3">
                                    <path d="M80.665,23.892 L84.598,23.74 L84.769,25.051 C84.87,24.937 85.01,24.798 85.187,24.633 C85.364,24.468 85.684,24.247 86.146,23.968 C86.609,23.689 87.03,23.55 87.41,23.55 C87.714,23.55 88.008,23.578 88.294,23.636 C88.579,23.693 88.791,23.753 88.93,23.816 L89.12,23.892 L88.968,27.502 L87.315,27.502 L87.03,25.887 C86.701,25.887 86.365,25.976 86.023,26.153 C85.681,26.33 85.421,26.508 85.244,26.685 L84.978,26.951 L84.978,32.005 L86.783,32.48 L86.783,34 L80.665,34 L80.665,32.48 L82.185,32.005 L82.185,25.792 L80.665,25.412 L80.665,23.892 L80.665,23.892 Z M100.14,33.867 L96.378,34 L96.036,32.765 C95.922,32.866 95.77,32.996 95.58,33.154 C95.39,33.313 95.026,33.525 94.488,33.791 C93.949,34.057 93.439,34.19 92.958,34.19 C92.033,34.19 91.311,33.93 90.792,33.411 C90.273,32.892 90.013,32.157 90.013,31.207 C90.013,29.117 91.533,28.072 94.573,28.072 L95.903,28.072 L95.903,27.027 C95.903,26.077 95.415,25.602 94.44,25.602 C94.149,25.602 93.864,25.627 93.585,25.678 C93.306,25.729 93.097,25.779 92.958,25.83 L92.768,25.887 L92.483,27.122 L90.773,27.122 L90.64,24.31 C92.173,23.803 93.547,23.55 94.763,23.55 C96.207,23.55 97.227,23.832 97.822,24.396 C98.417,24.959 98.715,25.931 98.715,27.312 L98.715,32.005 L100.14,32.347 L100.14,33.867 L100.14,33.867 Z M92.749,30.922 C92.749,31.682 93.123,32.062 93.87,32.062 C94.174,32.062 94.494,31.97 94.83,31.786 C95.165,31.603 95.428,31.416 95.618,31.226 L95.903,30.96 L95.903,29.687 L94.82,29.687 C94.085,29.687 93.557,29.785 93.234,29.982 C92.91,30.178 92.749,30.491 92.749,30.922 L92.749,30.922 Z M105.14,34.019 L101.76,25.659 L100.75,25.355 L100.75,23.835 L105.82,23.74 L105.82,25.355 L104.76,25.545 L106.45,30.865 L108.06,25.602 L106.96,25.355 L106.96,23.835 L112.07,23.74 L112.07,25.355 L110.89,25.602 L108.1,33.392 C107.82,34.139 107.56,34.769 107.31,35.282 C107.07,35.796 106.74,36.327 106.33,36.878 C105.93,37.43 105.44,37.847 104.87,38.132 C104.3,38.418 103.66,38.56 102.93,38.56 L101.09,38.408 L101.36,36.375 L102.59,36.375 C102.95,36.375 103.27,36.296 103.57,36.138 C103.87,35.979 104.12,35.751 104.33,35.454 C104.54,35.156 104.69,34.912 104.8,34.722 C104.9,34.532 105.01,34.298 105.14,34.019 L105.14,34.019 Z M121.84,23.645 L123.91,30.922 L125.03,25.64 L123.87,25.355 L123.87,23.835 L128.74,23.74 L128.74,25.355 L127.73,25.583 L125.2,34 L122.29,34 L120.79,29.155 L120.45,27.673 L119.98,29.744 L118.59,34 L115.7,34 L113.12,25.621 L112.28,25.355 L112.28,23.835 L117.26,23.74 L117.26,25.355 L116.06,25.583 L117.32,30.922 L119.33,24.063 L121.84,23.645 L121.84,23.645 Z M138.8,29.44 L132.5,29.497 C132.55,30.282 132.78,30.89 133.19,31.321 C133.6,31.752 134.13,31.967 134.78,31.967 C135.25,31.967 135.75,31.894 136.28,31.748 C136.81,31.603 137.22,31.454 137.51,31.302 L137.97,31.074 L138.79,32.594 C138.65,32.708 138.45,32.854 138.2,33.031 C137.94,33.208 137.44,33.446 136.68,33.744 C135.92,34.041 135.18,34.19 134.45,34.19 C132.85,34.19 131.62,33.744 130.78,32.85 C129.94,31.957 129.51,30.694 129.51,29.06 C129.51,27.375 129.96,26.036 130.86,25.042 C131.76,24.047 133,23.55 134.59,23.55 C135.98,23.55 137.05,23.949 137.8,24.747 C138.55,25.545 138.92,26.634 138.92,28.015 L138.8,29.44 L138.8,29.44 Z M134.4,25.773 C133.88,25.773 133.46,25.95 133.13,26.305 C132.81,26.66 132.61,27.135 132.54,27.73 L135.96,27.73 C135.96,26.425 135.44,25.773 134.4,25.773 L134.4,25.773 Z M140.1,23.892 L144.03,23.74 L144.16,25.051 C144.3,24.937 144.49,24.801 144.71,24.642 C144.94,24.484 145.36,24.269 145.98,23.996 C146.59,23.724 147.15,23.588 147.66,23.588 C148.57,23.588 149.27,23.889 149.76,24.49 C150.25,25.092 150.49,25.919 150.49,26.97 L150.49,32.005 C150.65,32.056 150.89,32.138 151.19,32.252 C151.5,32.366 151.71,32.442 151.82,32.48 L151.82,34 L146.69,34 L146.69,32.48 L147.7,32.005 L147.7,27.407 C147.7,26.964 147.58,26.6 147.35,26.314 C147.11,26.029 146.8,25.887 146.4,25.887 C146.05,25.887 145.71,25.979 145.37,26.162 C145.03,26.346 144.78,26.527 144.62,26.704 L144.37,26.97 L144.37,32.005 L145.36,32.48 L145.36,34 L140.1,34 L140.1,32.48 L141.56,32.005 L141.56,25.792 L140.1,25.412 L140.1,23.892 L140.1,23.892 Z M163.79,33.867 L159.8,34 L159.63,32.993 C158.83,33.791 157.87,34.19 156.76,34.19 C155.46,34.19 154.48,33.747 153.83,32.86 C153.19,31.973 152.86,30.726 152.86,29.117 C152.86,27.318 153.32,25.941 154.22,24.984 C155.13,24.028 156.47,23.55 158.24,23.55 C158.66,23.55 159.07,23.613 159.48,23.74 L159.48,21.327 L157.96,20.947 L157.96,19.427 L162.27,19.275 L162.27,31.967 L163.79,32.347 L163.79,33.867 L163.79,33.867 Z M159.48,30.884 L159.48,26.02 C159.16,25.83 158.67,25.735 158,25.735 C156.54,25.735 155.81,26.812 155.81,28.965 C155.81,30.966 156.42,31.967 157.63,31.967 C157.99,31.967 158.32,31.875 158.63,31.692 C158.94,31.508 159.16,31.327 159.29,31.15 L159.48,30.884 L159.48,30.884 Z M174.09,29.44 L167.78,29.497 C167.83,30.282 168.06,30.89 168.47,31.321 C168.89,31.752 169.41,31.967 170.06,31.967 C170.53,31.967 171.03,31.894 171.56,31.748 C172.09,31.603 172.5,31.454 172.8,31.302 L173.25,31.074 L174.07,32.594 C173.93,32.708 173.73,32.854 173.48,33.031 C173.23,33.208 172.72,33.446 171.96,33.744 C171.2,34.041 170.46,34.19 169.74,34.19 C168.13,34.19 166.9,33.744 166.06,32.85 C165.22,31.957 164.8,30.694 164.8,29.06 C164.8,27.375 165.25,26.036 166.15,25.042 C167.05,24.047 168.29,23.55 169.87,23.55 C171.26,23.55 172.33,23.949 173.08,24.747 C173.83,25.545 174.2,26.634 174.2,28.015 L174.09,29.44 L174.09,29.44 Z M169.68,25.773 C169.16,25.773 168.74,25.95 168.42,26.305 C168.09,26.66 167.89,27.135 167.82,27.73 L171.24,27.73 C171.24,26.425 170.72,25.773 169.68,25.773 L169.68,25.773 Z M175.38,23.892 L179.31,23.74 L179.48,25.051 C179.59,24.937 179.72,24.798 179.9,24.633 C180.08,24.468 180.4,24.247 180.86,23.968 C181.32,23.689 181.74,23.55 182.12,23.55 C182.43,23.55 182.72,23.578 183.01,23.636 C183.29,23.693 183.51,23.753 183.64,23.816 L183.84,23.892 L183.68,27.502 L182.03,27.502 L181.74,25.887 C181.42,25.887 181.08,25.976 180.74,26.153 C180.4,26.33 180.14,26.508 179.96,26.685 L179.69,26.951 L179.69,32.005 L181.5,32.48 L181.5,34 L175.38,34 L175.38,32.48 L176.9,32.005 L176.9,25.792 L175.38,25.412 L175.38,23.892 L175.38,23.892 Z M184.5,19.427 L188.89,19.275 L188.89,32.005 L190.69,32.48 L190.69,34 L184.5,34 L184.5,32.48 L186.02,32.005 L186.02,21.327 L184.5,20.947 L184.5,19.427 L184.5,19.427 Z M191.49,23.892 L195.8,23.74 L195.8,32.005 L197.14,32.48 L197.14,34 L191.49,34 L191.49,32.48 L193.01,32.005 L193.01,25.792 L191.49,25.412 L191.49,23.892 L191.49,23.892 Z M192.65,20.605 C192.65,20.086 192.81,19.671 193.14,19.36 C193.46,19.05 193.84,18.895 194.28,18.895 C195.35,18.895 195.88,19.465 195.88,20.605 C195.88,21.137 195.72,21.558 195.4,21.868 C195.07,22.179 194.7,22.334 194.28,22.334 C193.77,22.334 193.36,22.185 193.08,21.888 C192.79,21.59 192.65,21.162 192.65,20.605 L192.65,20.605 Z M206.27,30.96 L207.22,32.575 C206,33.652 204.63,34.19 203.14,34.19 C201.58,34.19 200.37,33.734 199.5,32.822 C198.63,31.91 198.2,30.643 198.2,29.022 C198.2,27.325 198.66,25.988 199.58,25.013 C200.49,24.038 201.78,23.55 203.42,23.55 C203.91,23.55 204.42,23.604 204.98,23.712 C205.54,23.819 205.98,23.93 206.29,24.044 L206.75,24.215 L206.65,27.312 L204.94,27.312 L204.68,25.944 C204.31,25.843 203.87,25.792 203.37,25.792 C202.66,25.792 202.11,26.029 201.72,26.504 C201.34,26.98 201.14,27.692 201.14,28.642 C201.14,29.719 201.34,30.542 201.74,31.112 C202.14,31.682 202.73,31.967 203.52,31.967 C203.77,31.967 204.01,31.945 204.24,31.9 C204.47,31.856 204.69,31.79 204.91,31.701 C205.12,31.612 205.29,31.536 205.41,31.473 C205.53,31.41 205.69,31.315 205.9,31.188 C206.11,31.061 206.24,30.985 206.27,30.96 L206.27,30.96 Z M207.89,19.427 L212.2,19.275 L212.2,24.842 C213.24,23.981 214.3,23.55 215.39,23.55 C216.34,23.55 217.07,23.851 217.58,24.452 C218.09,25.054 218.34,25.893 218.34,26.97 L218.34,32.005 L219.67,32.48 L219.67,34 L214.54,34 L214.54,32.48 L215.53,32.024 L215.53,27.407 C215.53,26.394 215.11,25.887 214.27,25.887 C213.96,25.887 213.63,25.972 213.28,26.144 C212.94,26.315 212.68,26.482 212.49,26.647 L212.2,26.894 L212.2,32.005 L213.21,32.48 L213.21,34 L207.89,34 L207.89,32.48 L209.41,32.005 L209.41,21.327 L207.89,20.947 L207.89,19.427 L207.89,19.427 Z M221.32,32.518 C221.32,31.999 221.48,31.584 221.81,31.274 C222.13,30.963 222.51,30.808 222.96,30.808 C223.48,30.808 223.87,30.957 224.14,31.254 C224.42,31.552 224.55,31.973 224.55,32.518 C224.55,33.05 224.39,33.471 224.08,33.782 C223.76,34.092 223.37,34.247 222.92,34.247 C222.4,34.247 222,34.098 221.73,33.8 C221.46,33.503 221.32,33.075 221.32,32.518 L221.32,32.518 Z M234.43,30.96 L235.38,32.575 C234.15,33.652 232.79,34.19 231.3,34.19 C229.74,34.19 228.53,33.734 227.66,32.822 C226.79,31.91 226.36,30.643 226.36,29.022 C226.36,27.325 226.82,25.988 227.73,25.013 C228.65,24.038 229.94,23.55 231.58,23.55 C232.06,23.55 232.58,23.604 233.14,23.712 C233.7,23.819 234.13,23.93 234.45,24.044 L234.91,24.215 L234.81,27.312 L233.1,27.312 L232.84,25.944 C232.47,25.843 232.03,25.792 231.52,25.792 C230.82,25.792 230.27,26.029 229.88,26.504 C229.5,26.98 229.3,27.692 229.3,28.642 C229.3,29.719 229.5,30.542 229.9,31.112 C230.3,31.682 230.89,31.967 231.68,31.967 C231.93,31.967 232.17,31.945 232.4,31.9 C232.63,31.856 232.85,31.79 233.06,31.701 C233.28,31.612 233.45,31.536 233.57,31.473 C233.69,31.41 233.85,31.315 234.06,31.188 C234.27,31.061 234.39,30.985 234.43,30.96 L234.43,30.96 Z M241.37,23.55 C242.9,23.55 244.08,23.996 244.91,24.89 C245.74,25.783 246.16,27.046 246.16,28.68 C246.16,30.377 245.7,31.72 244.78,32.708 C243.86,33.696 242.63,34.19 241.08,34.19 C237.85,34.19 236.24,32.448 236.24,28.965 C236.24,27.268 236.7,25.941 237.62,24.984 C238.55,24.028 239.8,23.55 241.37,23.55 L241.37,23.55 Z M241.27,25.735 C240.55,25.735 240.02,25.969 239.69,26.438 C239.35,26.907 239.18,27.717 239.18,28.87 C239.18,29.959 239.34,30.754 239.66,31.254 C239.97,31.755 240.48,32.005 241.18,32.005 C241.87,32.005 242.39,31.758 242.72,31.264 C243.05,30.77 243.21,29.94 243.21,28.775 C243.21,27.749 243.05,26.986 242.74,26.486 C242.43,25.985 241.94,25.735 241.27,25.735 L241.27,25.735 Z M263.77,26.97 L263.77,32.005 L265.06,32.48 L265.06,34 L259.97,34 L259.97,32.48 L260.98,32.005 L260.98,27.54 C260.98,27.008 260.89,26.615 260.72,26.362 C260.55,26.109 260.27,25.982 259.87,25.982 C259.51,25.982 259.15,26.064 258.8,26.229 C258.45,26.394 258.19,26.558 258.03,26.723 L257.76,26.97 L257.76,32.005 L258.75,32.48 L258.75,34 L253.96,34 L253.96,32.48 L254.95,32.005 L254.95,27.54 C254.95,26.995 254.87,26.6 254.7,26.352 C254.54,26.105 254.26,25.982 253.87,25.982 C253.5,25.982 253.14,26.064 252.79,26.229 C252.43,26.394 252.17,26.558 251.99,26.723 L251.74,26.97 L251.74,32.005 L252.75,32.48 L252.75,34 L247.48,34 L247.48,32.48 L248.95,32.005 L248.95,25.773 L247.5,25.412 L247.5,23.892 L251.42,23.74 L251.55,25.089 C251.68,24.975 251.85,24.833 252.06,24.662 C252.28,24.49 252.68,24.263 253.26,23.978 C253.84,23.692 254.38,23.55 254.88,23.55 C256.13,23.55 256.99,24.095 257.46,25.184 C257.65,24.994 257.87,24.798 258.12,24.595 C258.38,24.392 258.78,24.168 259.32,23.92 C259.87,23.673 260.39,23.55 260.9,23.55 C261.85,23.55 262.56,23.848 263.05,24.443 C263.53,25.038 263.77,25.881 263.77,26.97 L263.77,26.97 Z" id="raywenderlich.com" fill="#FFFFFF"></path>
                                    <path d="M0,64 L64,64 L64,9.676 L41.846,48.067 L33.044,32.438 L23.03,48.371 C23.03,48.371 16.353,32.438 14.304,27.582 C16.808,25.761 28.341,19.084 28.341,10.283 C28.341,1.4819 8.649,-1.77635684e-15 3.55271368e-15,-1.77635684e-15 L3.55271368e-15,64 L0,64 Z" id="Page-1" fill="#006837"></path>
                                </g>
                            </g>
                        </g>
                    </g>
                </g>
            </g>
            <rect id="Rectangle-1" fill="#006837" x="0" y="72" width="1200" height="6"></rect>
        </g>
    </g>
</svg>